<svg width="255" height="30" viewBox="0 0 255 30" fill="none" xmlns="http://www.w3.org/2000/svg">
<g opacity="0.9">
<path d="M28.5 25.5V4.5C28.5 2.85 27.1455 1.5 25.4925 1.5H4.5075C2.7825 1.5 1.5 2.7795 1.5 4.5V25.5C1.5 27.222 2.7825 28.5 4.5075 28.5H25.4925C26.2885 28.4988 27.0516 28.1826 27.6152 27.6205C28.1787 27.0583 28.4968 26.296 28.5 25.5ZM22.776 17.4105C22.776 17.4105 24.474 19.086 24.8925 19.863C24.9045 19.8795 24.909 19.8945 24.9135 19.9005C25.083 20.1855 25.1265 20.4105 25.041 20.5755C24.9 20.85 24.42 20.988 24.2565 21H21.258C21.048 21 20.613 20.946 20.085 20.5815C19.68 20.2995 19.2795 19.833 18.8895 19.3785C18.3075 18.7035 17.8035 18.1185 17.2965 18.1185C17.2322 18.1183 17.1683 18.129 17.1075 18.15C16.722 18.273 16.233 18.8205 16.233 20.283C16.233 20.7405 15.873 21.0015 15.618 21.0015H14.244C13.776 21.0015 11.3385 20.838 9.18 18.5595C6.531 15.7695 4.152 10.173 4.131 10.1235C3.981 9.762 4.2915 9.5655 4.629 9.5655H7.659C8.0655 9.5655 8.196 9.8115 8.289 10.032C8.394 10.2825 8.79 11.2935 9.438 12.4305C10.4925 14.28 11.142 15.033 11.6595 15.033C11.7563 15.0325 11.8513 15.0071 11.9355 14.9595C12.612 14.586 12.486 12.174 12.456 11.676C12.456 11.5815 12.4545 10.5975 12.1095 10.125C11.8605 9.783 11.439 9.6525 11.184 9.603C11.288 9.45972 11.4248 9.34347 11.583 9.264C12.0465 9.033 12.882 9 13.713 9H14.175C15.0765 9.012 15.3105 9.0705 15.636 9.153C16.2945 9.3105 16.308 9.738 16.2495 11.193C16.233 11.607 16.215 12.0765 16.215 12.627C16.215 12.7455 16.2105 12.876 16.2105 13.011C16.1895 13.755 16.1655 14.5965 16.6905 14.9415C16.7584 14.984 16.8369 15.0069 16.917 15.0075C17.1 15.0075 17.6475 15.0075 19.131 12.462C19.7835 11.3385 20.286 10.0125 20.3205 9.9135C20.3729 9.80646 20.4488 9.71263 20.5425 9.639C20.6193 9.59909 20.7049 9.57899 20.7915 9.5805H24.354C24.744 9.5805 25.008 9.639 25.0575 9.7875C25.143 10.026 25.041 10.7535 23.4135 12.9525L22.689 13.9125C21.213 15.8445 21.213 15.9435 22.776 17.4105Z" fill="black" fill-opacity="0.5"/>
<path d="M57.793 10.377C57.793 9.08203 58.8418 8.0332 60.125 8.0332C61.4082 8.0332 62.457 9.08203 62.457 10.377C62.457 11.666 61.4082 12.709 60.125 12.709C58.8418 12.709 57.793 11.6602 57.793 10.377ZM73.25 4.6875V25.3125C73.25 26.8652 71.9902 28.125 70.4375 28.125H49.8125C48.2598 28.125 47 26.8652 47 25.3125V4.6875C47 3.13477 48.2598 1.875 49.8125 1.875H70.4375C71.9902 1.875 73.25 3.13477 73.25 4.6875ZM55.373 10.377C55.373 12.9902 57.5059 15.1172 60.125 15.1172C62.7441 15.1172 64.877 12.9961 64.877 10.377C64.877 7.75195 62.7441 5.625 60.125 5.625C57.5059 5.625 55.373 7.74609 55.373 10.377ZM65.5977 15.6914C65.3281 15.1582 64.584 14.707 63.5996 15.4805C63.5996 15.4805 62.2695 16.5352 60.125 16.5352C57.9805 16.5352 56.6504 15.4805 56.6504 15.4805C55.666 14.707 54.9219 15.1582 54.6523 15.6914C54.1895 16.6348 54.7168 17.0801 55.9062 17.8594C56.9199 18.5098 58.3203 18.75 59.2227 18.8438L58.4668 19.5996C57.4004 20.6543 56.3867 21.6797 55.6719 22.3945C54.6406 23.4258 56.2988 25.0781 57.3359 24.0703L60.1309 21.2637C61.1973 22.3301 62.2227 23.3555 62.9258 24.0703C63.957 25.0781 65.6211 23.4434 64.6016 22.3945L61.8066 19.5996L61.0449 18.8438C61.9531 18.75 63.3359 18.498 64.3379 17.8594C65.5332 17.0801 66.0547 16.6289 65.5977 15.6914Z" fill="black" fill-opacity="0.5"/>
<path d="M116.375 1.875H93.8691C92.8379 1.875 92 2.72461 92 3.76758V26.2324C92 27.2754 92.8379 28.125 93.8691 28.125H116.375C117.406 28.125 118.25 27.2754 118.25 26.2324V3.76758C118.25 2.72461 117.406 1.875 116.375 1.875ZM99.9336 24.375H96.043V11.8477H99.9395V24.375H99.9336ZM97.9883 10.1367C96.7402 10.1367 95.7324 9.12305 95.7324 7.88086C95.7324 6.63867 96.7402 5.625 97.9883 5.625C99.2305 5.625 100.244 6.63867 100.244 7.88086C100.244 9.12891 99.2363 10.1367 97.9883 10.1367ZM114.518 24.375H110.627V18.2812C110.627 16.8281 110.598 14.959 108.605 14.959C106.578 14.959 106.268 16.541 106.268 18.1758V24.375H102.377V11.8477H106.109V13.5586H106.162C106.684 12.5742 107.955 11.5371 109.848 11.5371C113.785 11.5371 114.518 14.1328 114.518 17.5078V24.375Z" fill="black" fill-opacity="0.5"/>
<path d="M145.151 15.1201C145.151 13.7399 145.634 12.5667 146.601 11.6006C147.567 10.6344 148.74 10.1514 150.12 10.1514C151.5 10.1514 152.674 10.6344 153.64 11.6006C154.606 12.5667 155.089 13.7399 155.089 15.1201C155.089 16.5003 154.606 17.6735 153.64 18.6396C152.674 19.6058 151.5 20.0889 150.12 20.0889C148.74 20.0889 147.567 19.6058 146.601 18.6396C145.634 17.6735 145.151 16.5003 145.151 15.1201ZM163.37 13.4639V25.0576C163.37 25.972 163.047 26.7527 162.4 27.3997C161.753 28.0466 160.972 28.3701 160.058 28.3701H140.183C139.268 28.3701 138.488 28.0466 137.841 27.3997C137.194 26.7527 136.87 25.972 136.87 25.0576V5.18262C136.87 4.26823 137.194 3.48755 137.841 2.84058C138.488 2.1936 139.268 1.87012 140.183 1.87012H160.058C160.972 1.87012 161.753 2.1936 162.4 2.84058C163.047 3.48755 163.37 4.26823 163.37 5.18262V10.1514H156.745C155.969 9.13346 155.003 8.3269 153.847 7.73169C152.691 7.13647 151.449 6.83887 150.12 6.83887C148.792 6.83887 147.549 7.13647 146.394 7.73169C145.238 8.3269 144.271 9.13346 143.495 10.1514H136.87V13.4639H141.994C141.891 14.016 141.839 14.568 141.839 15.1201C141.839 16.6211 142.21 18.0056 142.952 19.2737C143.694 20.5417 144.698 21.5467 145.967 22.2886C147.235 23.0304 148.619 23.4014 150.12 23.4014C151.621 23.4014 153.006 23.0304 154.274 22.2886C155.542 21.5467 156.547 20.5417 157.289 19.2737C158.03 18.0056 158.401 16.6211 158.401 15.1201C158.401 14.568 158.35 14.016 158.246 13.4639H163.37Z" fill="black" fill-opacity="0.5"/>
<path d="M197.359 22.0505V19.3423C197.359 18.7673 197.192 18.4798 196.859 18.4798C196.663 18.4798 196.473 18.5718 196.289 18.7558V22.6198C196.473 22.8038 196.663 22.8958 196.859 22.8958C197.192 22.8958 197.359 22.614 197.359 22.0505ZM200.533 19.946H201.671V19.3595C201.671 18.773 201.481 18.4798 201.102 18.4798C200.722 18.4798 200.533 18.773 200.533 19.3595V19.946ZM190.683 15.3576V16.565H189.303V23.8617H188.027V16.565H186.681V15.3576H190.683ZM194.15 17.531V23.8617H192.995V23.1717C192.546 23.6892 192.109 23.948 191.684 23.948C191.304 23.948 191.063 23.787 190.959 23.465C190.89 23.2695 190.856 22.959 190.856 22.5335V17.531H191.994V22.1885C191.994 22.4645 192 22.614 192.011 22.637C192.023 22.8095 192.109 22.8958 192.27 22.8958C192.5 22.8958 192.742 22.7175 192.995 22.361V17.531H194.15ZM198.497 19.4458V21.9643C198.497 22.5623 198.457 22.982 198.377 23.2235C198.239 23.7065 197.934 23.948 197.462 23.948C197.06 23.948 196.669 23.7122 196.289 23.2407V23.8617H195.134V15.3576H196.289V18.1348C196.657 17.6748 197.048 17.4448 197.462 17.4448C197.934 17.4448 198.239 17.6863 198.377 18.1693C198.457 18.4108 198.497 18.8363 198.497 19.4458ZM202.827 21.671V21.8263C202.827 22.1598 202.815 22.407 202.792 22.568C202.758 22.821 202.672 23.051 202.534 23.258C202.223 23.718 201.763 23.948 201.154 23.948C200.556 23.948 200.09 23.7295 199.757 23.2925C199.515 22.982 199.394 22.4875 199.394 21.809V19.5838C199.394 18.9053 199.509 18.4108 199.739 18.1003C200.073 17.6633 200.533 17.4448 201.119 17.4448C201.706 17.4448 202.154 17.6633 202.465 18.1003C202.706 18.4338 202.827 18.9283 202.827 19.5838V20.8948H200.533V22.016C200.533 22.6025 200.728 22.8958 201.119 22.8958C201.395 22.8958 201.568 22.7463 201.637 22.4473C201.637 22.4358 201.64 22.3955 201.645 22.3265C201.651 22.2575 201.654 22.1626 201.654 22.0419V21.671H202.827ZM195.047 7.45712V10.1481C195.047 10.7346 194.863 11.0278 194.495 11.0278C194.127 11.0278 193.943 10.7346 193.943 10.1481V7.45712C193.943 6.85913 194.127 6.56013 194.495 6.56013C194.863 6.56013 195.047 6.85913 195.047 7.45712ZM204.241 19.7563C204.241 17.7208 204.132 16.2258 203.914 15.2713C203.799 14.7653 203.551 14.3427 203.172 14.0034C202.792 13.6642 202.355 13.4658 201.861 13.4083C200.297 13.2358 197.928 13.1496 194.754 13.1496C191.592 13.1496 189.228 13.2358 187.664 13.4083C187.158 13.4658 186.718 13.6642 186.345 14.0034C185.971 14.3427 185.727 14.7653 185.612 15.2713C185.382 16.2718 185.267 17.7668 185.267 19.7563C185.267 21.7803 185.382 23.2752 185.612 24.2412C185.727 24.7357 185.971 25.1555 186.345 25.5005C186.718 25.8455 187.153 26.0467 187.647 26.1042C189.223 26.2767 191.592 26.363 194.754 26.363C197.917 26.363 200.285 26.2767 201.861 26.1042C202.355 26.0467 202.79 25.8455 203.163 25.5005C203.537 25.1555 203.781 24.7357 203.896 24.2412C204.126 23.2752 204.241 21.7803 204.241 19.7563ZM191.218 8.52661L192.77 3.42065H191.477L190.597 6.78438L189.683 3.42065H188.337C188.418 3.68515 188.55 4.0819 188.734 4.61089L189.148 5.80113C189.55 6.98563 189.815 7.89412 189.941 8.52661V11.9938H191.218V8.52661ZM196.203 9.92385V7.68137C196.203 7.01438 196.082 6.51413 195.841 6.18063C195.507 5.74363 195.059 5.52514 194.495 5.52514C193.909 5.52514 193.46 5.74363 193.15 6.18063C192.908 6.51413 192.788 7.01438 192.788 7.68137V9.92385C192.788 10.5908 192.908 11.0911 193.15 11.4246C193.46 11.8616 193.909 12.0801 194.495 12.0801C195.059 12.0801 195.507 11.8616 195.841 11.4246C196.082 11.1141 196.203 10.6138 196.203 9.92385ZM199.325 11.9938H200.481V5.61139H199.325V10.4931C199.072 10.8496 198.831 11.0278 198.601 11.0278C198.428 11.0278 198.336 10.9358 198.325 10.7518C198.313 10.7288 198.308 10.5793 198.308 10.3033V5.61139H197.152V10.6656C197.152 11.0911 197.186 11.4073 197.255 11.6143C197.382 11.9248 197.629 12.0801 197.997 12.0801C198.411 12.0801 198.854 11.8213 199.325 11.3038V11.9938ZM208.002 6.74988V23.3097C208.002 24.6782 207.997 26.4224 207.026 27.3941C206.054 28.3659 204.402 28.2777 203.034 28.2777H186.474C185.106 28.2777 183.317 28.3659 182.345 27.3941C181.373 26.4224 181.506 24.6782 181.506 23.3097V6.74988C181.506 5.38139 181.373 3.63645 182.345 2.6647C183.317 1.69296 185.106 1.78192 186.474 1.78192H203.034C204.402 1.78192 206.054 1.69296 207.026 2.6647C207.997 3.63645 208.002 5.38139 208.002 6.74988Z" fill="black" fill-opacity="0.5"/>
<path d="M252.19 1.78027H227.81C227.224 1.78027 226.75 2.25396 226.75 2.84027V27.2203C226.75 27.8066 227.224 28.2803 227.81 28.2803H252.19C252.776 28.2803 253.25 27.8066 253.25 27.2203V2.84027C253.25 2.25396 252.776 1.78027 252.19 1.78027ZM249.129 9.51496H247.013C245.353 9.51496 245.032 10.3033 245.032 11.4627V14.0166H248.993L248.477 18.0148H245.032V28.2803H240.901V18.0182H237.446V14.0166H240.901V11.0685C240.901 7.64671 242.991 5.78177 246.045 5.78177C247.509 5.78177 248.765 5.89109 249.133 5.94077V9.51496H249.129Z" fill="black" fill-opacity="0.5"/>
</g>
</svg>
